# AST/ASF file generated using VICON BodyLanguage
# -----------------------------------------------
:version 1.10
:name VICON
:units
  mass 1.0
  length 0.45
  angle deg
:documentation
   .ast/.asf automatically generated from VICON data using
   VICON BodyBuilder and BodyLanguage model FoxedUp or BRILLIANT.MOD
:root
   order TX TY TZ RX RY RZ
   axis XYZ
   position 0 0 0  
   orientation 0 0 0 
:bonedata
  begin
     id 1 
     name lhipjoint
     direction 0.606768 -0.715223 0.346827 
     length 2.41543 
     axis 0 0 0  XYZ
  end
  begin
     id 2 
     name lfemur
     direction 0.34202 -0.939693 0  
     length 7.2778  
     axis 0 0 20  XYZ
    dof rx ry rz
    limits (-160.0 20.0)
           (-70.0 70.0)
           (-60.0 70.0)
  end
  begin
     id 3 
     name ltibia
     direction 0.34202 -0.939693 0   
     length 7.61811   
     axis 0 0 20   XYZ
    dof rx
    limits (-10.0 170.0)
  end
  begin
     id 4 
     name lfoot
     direction 0.0823924 -0.226371 0.97055   
     length 2.33618   
     axis -90 7.62852e-016 20   XYZ
    dof rx rz
    limits (-45.0 90.0)
           (-70.0 20.0)
  end
  begin
     id 5 
     name ltoes
     direction 1.53554e-011 -4.21934e-011 1   
     length 1.17015   
     axis -90 7.62852e-016 20   XYZ
    dof rx
    limits (-90.0 20.0)
  end
  begin
     id 6 
     name rhipjoint
     direction -0.6077 -0.714582 0.346516   
     length 2.4176  
     axis 0 0 0  XYZ 
  end
  begin
     id 7 
     name rfemur
     direction -0.34202 -0.939693 0   
     length 7.28127   
     axis 0 0 -20   XYZ
    dof rx ry rz
    limits (-160.0 20.0)
           (-70.0 70.0)
           (-70.0 60.0)
  end
  begin
     id 8 
     name rtibia
     direction -0.34202 -0.939693 0   
     length 7.77648   
     axis 0 0 -20   XYZ
    dof rx
    limits (-10.0 170.0)
 end
 begin
     id 9 
     name rfoot
     direction -0.0809463 -0.222398 0.97159   
     length 2.37533  
     axis -90 -7.62852e-016 -20   XYZ
    dof rx rz
    limits (-45.0 90.0)
           (-20.0 70.0)
  end
  begin
     id 10 
     name rtoes
     direction -1.53568e-011 -4.21714e-011 1   
     length 1.18972   
     axis -90 -7.62852e-016 -20   XYZ
    dof rx
    limits (-90.0 20.0)
  end
  begin
     id 11 
     name lowerback
     direction 0.010968 0.991932 -0.126297   
     length 2.21698   
     axis 0 0 0   XYZ
    dof rx ry rz
    limits (-20.0 45.0)
           (-30.0 30.0)
           (-30.0 30.0)
  end
  begin
     id 12 
     name upperback
     direction 0.0167007 0.997503 -0.0686276   
     length 2.22371   
     axis 0 0 0   XYZ
    dof rx ry rz
    limits (-20.0 45.0)
           (-30.0 30.0)
           (-30.0 30.0)
  end
  begin
     id 13 
     name thorax
     direction 0.0111721 0.999885 -0.0102878   
     length 2.25242   
     axis 0 0 0   XYZ
    dof rx ry rz
    limits (-20.0 45.0)
           (-30.0 30.0)
           (-30.0 30.0)
  end
  begin
     id 14 
     name lowerneck
     direction -0.0120265 0.990428 0.137508   
     length 1.57674   
     axis 0 0 0   XYZ
    dof rx ry rz
    limits (-20.0 45.0)
           (-30.0 30.0)
           (-30.0 30.0)
  end
  begin
     id 15 
     name upperneck
     direction 0.0175669 0.998907 0.0433089   
     length 1.5618   
     axis 0 0 0   XYZ
    dof rx ry rz
    limits (-20.0 45.0)
           (-30.0 30.0)
           (-30.0 30.0)
  end
  begin
     id 16
     name head
     direction 0.00754609 0.99997 0.00185367  
     length 1.60579  
     axis 0 0 0   XYZ
    dof rx ry rz
    limits (-20.0 45.0)
           (-30.0 30.0)
           (-30.0 30.0)
  end
  begin
     id 17 
     name lclavicle
     direction 0.885866 0.429166 -0.176231  
     length 3.44967  
     axis 0 0 0   XYZ
    dof ry rz
    limits (-20.0 10.0)
           (0.0 20.0)
  end
  begin
     id 18 
     name lhumerus
     direction 1 -4.48973e-011 -1.90255e-027   
     length 5.20607   
     axis 180 -30 -90   XYZ
    dof rx ry rz
    limits (-60.0 90.0)
           (-90.0 90.0)
           (-90.0 90.0)
  end
  begin
     id 19
     name lradius
     direction 1 -4.48956e-011 9.87925e-027   
     length 3.39961   
     axis 180 -30 -90   XYZ
    dof rx
    limits (-10.0 170.0)
  end
  begin
     id 20
     name lwrist
     direction 1 -4.48985e-011 1.73247e-026   
     length 1.6998   
     axis -9.60847e-015 90 90   XYZ
    dof ry
    limits (-180.0 0.0)
 end
  begin
     id 21 
     name lhand
     direction 1 -4.48798e-011 3.46119e-026   
     length 0.519693   
     axis -2.21073e-014 90 90   XYZ
    dof rx rz
    limits (-90.0 90.0)
           (-45.0 45.0)
  end
  begin
     id 22 
     name lfingers
     direction 1 -4.48938e-011 6.92797e-026   
     length 0.41899   
     axis -4.42155e-014 90 90   XYZ
    dof rx
    limits (0.0 90.0)
  end
  begin
     id 23
     name lthumb
     direction 0.707107 -6.34952e-011 0.707107   
     length 0.601588   
     axis -90 45 6.0103e-014   XYZ
    dof rx rz
    limits (-45.0 45.0)
           (-45.0 45.0)
  end
  begin
     id 24 
     name rclavicle
     direction -0.866736 0.456792 -0.200276   
     length 3.45032  
     axis 0 0 0   XYZ 
    dof ry rz
    limits (-10.0 20.0)
           (-20.0 0.0)
  end
  begin
     id 25 
     name rhumerus
     direction -1 -4.4897e-011 8.65094e-028  
     length 5.32214   
     axis 180 30 90   XYZ
    dof rx ry rz
    limits (-90.0 60.0)
           (-90.0 90.0)
           (-90.0 90.0)
  end
  begin
     id 26 
     name rradius
     direction -1 -4.48987e-011 1.08427e-026   
     length 3.51208   
     axis 180 30 90   XYZ
    dof rx
    limits (-10.0 170.0)
  end
  begin
     id 27 
     name rwrist
     direction -1 -4.48961e-011 1.73222e-026   
     length 1.75604   
     axis -9.60847e-015 -90 -90   XYZ
    dof ry
    limits (-180.0 0.0)
  end
  begin
     id 28
     name rhand
     direction -1 -4.48895e-011 3.46314e-026   
     length 0.586681   
     axis -2.21073e-014 -90 -90   XYZ
    dof rx rz
    limits (-90.0 90.0)
           (-45.0 45.0)
  end
  begin
     id 29
     name rfingers
     direction -1 -4.48968e-011 6.92916e-026   
     length 0.472997   
     axis -4.42155e-014 -90 -90   XYZ
    dof rx
    limits (0.0 90.0)
  end
  begin
     id 30
     name rthumb
     direction -0.707107 -6.34848e-011 0.707107   
     length 0.679133   
     axis -90 -45 -6.0103e-014   XYZ
    dof rx rz
    limits (-45.0 45.0)
           (-45.0 45.0)
  end
:hierarchy
  begin
    root lhipjoint rhipjoint lowerback
    lhipjoint lfemur
    lfemur ltibia
    ltibia lfoot
    lfoot ltoes
    rhipjoint rfemur
    rfemur rtibia
    rtibia rfoot
    rfoot rtoes
    lowerback upperback
    upperback thorax
    thorax lowerneck lclavicle rclavicle
    lowerneck upperneck
    upperneck head
    lclavicle lhumerus
    lhumerus lradius
    lradius lwrist
    lwrist lhand lthumb
    lhand lfingers
    rclavicle rhumerus
    rhumerus rradius
    rradius rwrist
    rwrist rhand rthumb
    rhand rfingers
  end

#!OML:ASF H:\Dans Jumps\Project 1\Capture day 1\Session 1\subject.ASF
:FULLY-SPECIFIED
:DEGREES
33
root 0.117861 17.5953 -14.3374 7.73148 -0.365758 -1.59586
lowerback 0.780214 -0.519134 0.553494
upperback 5.45548 -0.788536 1.89269
thorax 5.21864 -0.416979 1.62002
lowerneck -12.182 0.496191 -2.34158
upperneck 33.9879 1.21054 0.386069
head 13.4641 0.275267 0.743437
rclavicle -8.54774e-015 1.23246e-014
rhumerus -19.5613 -18.7436 -80.7192
rradius 23.0462
rwrist 32.3323
rhand -19.1567 -26.8592
rfingers 7.12502
rthumb 7.15386 -56.7182
lclavicle -8.54774e-015 1.23246e-014
lhumerus -16.5901 -0.172303 88.3964
lradius 17.4804
lwrist 2.06404
lhand -25.4326 -3.1462
lfingers 7.12502
lthumb 1.09372 26.8307
rfemur -16.9666 -3.21357 20.3259
rtibia 22.6291
rfoot -12.4627 -2.25514
rtoes 12.0279
lfemur -15.837 6.82551 -17.9185
ltibia 20.5747
lfoot -10.2681 4.31613
ltoes 0.3664
34
root 0.121015 17.5953 -14.3395 7.73443 -0.374535 -1.59921
lowerback 0.786314 -0.518049 0.558418
upperback 5.4622 -0.787251 1.89305
thorax 5.22215 -0.416156 1.61773
lowerneck -12.1994 0.496149 -2.3399
upperneck 33.9846 1.21058 0.385721
head 13.4664 0.275424 0.743094
rclavicle 7.95139e-016 -1.27222e-014
rhumerus -19.5355 -18.7558 -80.725
rradius 23.0392
rwrist 32.3497
rhand -19.1619 -26.8425
rfingers 7.12502
rthumb 7.14886 -56.7018
lclavicle 7.95139e-016 -1.27222e-014
lhumerus -16.5719 -0.154159 88.402
lradius 17.4695
lwrist 2.06054
lhand -25.4297 -3.1318
lfingers 7.12502
lthumb 1.09656 26.8451
rfemur -16.9758 -3.20965 20.3181
rtibia 22.6233
rfoot -12.4524 -2.25057
rtoes 12.0235
lfemur -15.8527 6.83961 -17.929
ltibia 20.5843
lfoot -10.268 4.30929
ltoes 0.374474
35
root 0.124065 17.5954 -14.3415 7.73885 -0.383004 -1.60533
lowerback 0.791784 -0.517988 0.56346
upperback 5.4667 -0.787362 1.89476
thorax 5.22374 -0.416047 1.61673
lowerneck -12.213 0.495873 -2.34143
upperneck 33.9829 1.20942 0.389971
head 13.4686 0.275224 0.744939
rclavicle -6.26172e-015 1.19271e-015
rhumerus -19.514 -18.7523 -80.7316
rradius 23.0386
rwrist 32.3556
rhand -19.1687 -26.8283
rfingers 7.12502
rthumb 7.14231 -56.6878
lclavicle -6.26172e-015 1.19271e-015
lhumerus -16.5577 -0.142659 88.4086
lradius 17.4591
lwrist 2.06064
lhand -25.4233 -3.12371
lfingers 7.12502
lthumb 1.10277 26.8532
rfemur -16.9858 -3.20845 20.3139
rtibia 22.6162
rfoot -12.4412 -2.24298
rtoes 12.014
lfemur -15.8702 6.85139 -17.9362
ltibia 20.5948
lfoot -10.2668 4.30628
ltoes 0.379442
36
root 0.126954 17.5954 -14.3435 7.74353 -0.3894 -1.61024
lowerback 0.798574 -0.519382 0.565158
upperback 5.46894 -0.789259 1.89624
thorax 5.22228 -0.416963 1.61729
lowerneck -12.2224 0.49563 -2.34323
upperneck 33.9831 1.20719 0.397223
head 13.4707 0.274891 0.747847
rclavicle 9.44227e-015 0
rhumerus -19.4952 -18.7444 -80.7384
rradius 23.041
rwrist 32.3577
rhand -19.1796 -26.8165
rfingers 7.12502
rthumb 7.13174 -56.6763
lclavicle 9.44227e-015 0
lhumerus -16.548 -0.14492 88.4158
lradius 17.4506
lwrist 2.07067
lhand -25.4184 -3.12283
lfingers 7.12502
lthumb 1.1075 26.854
rfemur -16.9955 -3.20932 20.3093
rtibia 22.6084
rfoot -12.4282 -2.2359
rtoes 12.0063
lfemur -15.8883 6.86076 -17.9441
ltibia 20.6053
lfoot -10.265 4.30452
ltoes 0.37844
37
root 0.129736 17.5955 -14.3454 7.74868 -0.395112 -1.61426
lowerback 0.806431 -0.520836 0.564628
upperback 5.46887 -0.79111 1.89752
thorax 5.2178 -0.417941 1.6189
lowerneck -12.2289 0.494703 -2.34617
upperneck 33.9852 1.20362 0.406115
head 13.473 0.274032 0.751402
rclavicle 3.37934e-015 1.78906e-014
rhumerus -19.4811 -18.7271 -80.7447
rradius 23.0496
rwrist 32.347
rhand -19.1917 -26.8133
rfingers 7.12502
rthumb 7.12014 -56.6735
lclavicle 3.37934e-015 1.78906e-014
lhumerus -16.544 -0.161039 88.4243
lradius 17.4461
lwrist 2.08729
lhand -25.4121 -3.12853
lfingers 7.12502
lthumb 1.1136 26.8483
rfemur -17.0047 -3.21056 20.3038
rtibia 22.5993
rfoot -12.4151 -2.22806
rtoes 12.0066
lfemur -15.9063 6.86664 -17.9523
ltibia 20.6162
lfoot -10.2635 4.30511
ltoes 0.385318
38
root 0.132359 17.5957 -14.3472 7.75384 -0.399242 -1.61832
lowerback 0.816227 -0.522506 0.562461
upperback 5.46662 -0.79315 1.89925
thorax 5.20995 -0.419089 1.62191
lowerneck -12.2331 0.492915 -2.34997
upperneck 33.9905 1.1986 0.416131
head 13.4762 0.272548 0.755349
rclavicle -2.78299e-015 -2.78299e-015
rhumerus -19.4695 -18.7124 -80.748
rradius 23.0587
rwrist 32.3356
rhand -19.2006 -26.8163
rfingers 7.12502
rthumb 7.11148 -56.6769
lclavicle -2.78299e-015 -2.78299e-015
lhumerus -16.5429 -0.188792 88.4349
lradius 17.4429
lwrist 2.11113
lhand -25.4091 -3.13648
lfingers 7.12502
lthumb 1.11647 26.8403
rfemur -17.0134 -3.21046 20.2989
rtibia 22.5901
rfoot -12.4016 -2.22322
rtoes 12.0065
lfemur -15.9236 6.86957 -17.9595
ltibia 20.6264
lfoot -10.2626 4.30602
ltoes 0.406247
39
root 0.134936 17.5959 -14.3489 7.75895 -0.40524 -1.62364
lowerback 0.825643 -0.522435 0.562429
upperback 5.46376 -0.792856 1.89984
thorax 5.20157 -0.418945 1.6226
lowerneck -12.2378 0.490162 -2.35077
upperneck 33.9979 1.19163 0.425527
head 13.4805 0.270494 0.758258
rclavicle 1.16289e-014 -1.51076e-014
rhumerus -19.4599 -18.7004 -80.7511
rradius 23.07
rwrist 32.3208
rhand -19.2146 -26.8207
rfingers 7.12502
rthumb 7.09799 -56.6817
lclavicle 1.16289e-014 -1.51076e-014
lhumerus -16.5449 -0.226178 88.4452
lradius 17.4442
lwrist 2.13904
lhand -25.4077 -3.14761
lfingers 7.12502
lthumb 1.11781 26.8292
rfemur -17.0214 -3.21052 20.2952
rtibia 22.5802
rfoot -12.3883 -2.21548
rtoes 12.0053
lfemur -15.9401 6.87185 -17.9651
ltibia 20.637
lfoot -10.2615 4.30926
ltoes 0.426243
40
root 0.137373 17.5961 -14.3506 7.76344 -0.412865 -1.62896
lowerback 0.834738 -0.521485 0.561491
upperback 5.46165 -0.791367 1.89986
thorax 5.19413 -0.418238 1.62327
lowerneck -12.2439 0.48641 -2.35094
upperneck 34.0061 1.18311 0.434811
head 13.4855 0.267823 0.760804
rclavicle 4.47266e-015 -1.39149e-014
rhumerus -19.4484 -18.6941 -80.7539
rradius 23.0799
rwrist 32.3064
rhand -19.2275 -26.8256
rfingers 7.12502
rthumb 7.08551 -56.687
lclavicle 4.47266e-015 -1.39149e-014
lhumerus -16.5471 -0.267704 88.4552
lradius 17.4469
lwrist 2.17096
lhand -25.4058 -3.15219
lfingers 7.12502
lthumb 1.11961 26.8246
rfemur -17.0288 -3.20778 20.2919
rtibia 22.57
rfoot -12.3747 -2.20952
rtoes 12.0013
lfemur -15.9556 6.8729 -17.9697
ltibia 20.6477
lfoot -10.2598 4.31449
ltoes 0.451384
